<?xml version="1.0" encoding="utf-8"?>
<!-- Generator: Adobe Illustrator 23.0.3, SVG Export Plug-In . SVG Version: 6.00 Build 0)  -->
<svg version="1.1" id="Layer_1" xmlns="http://www.w3.org/2000/svg" xmlns:xlink="http://www.w3.org/1999/xlink" x="0px" y="0px"
	 viewBox="0 0 512 512" style="enable-background:new 0 0 512 512;" xml:space="preserve">
<style type="text/css">
	.st0{fill:none;stroke:#1D1D1B;stroke-width:17;stroke-miterlimit:10;}
	.st1{fill:none;stroke:#1D1D1B;stroke-width:17;stroke-linecap:round;stroke-linejoin:round;stroke-miterlimit:10;}
	.st2{fill:#1D1D1B;}
	.st3{fill:none;stroke:#000000;stroke-width:15;stroke-miterlimit:10;}
</style>
<g>
	<path class="st0" d="M478.2,144.87v222.26c0,23.02-18.68,41.7-41.63,41.7H75.43c-22.95,0-41.63-18.68-41.63-41.7V144.87
		c0-16.61,9.7-30.97,23.79-37.63l149.92,149.92c25.92,25.92,67.95,25.92,93.87,0l150.89-150.89
		C467.47,112.48,478.2,127.41,478.2,144.87z"/>
	<path class="st0" d="M452.28,106.27L301.38,257.16c-25.92,25.92-67.95,25.92-93.87,0L57.59,107.24c5.37-2.65,11.44-4.07,17.84-4.07
		h361.13C442.13,103.17,447.43,104.27,452.28,106.27z"/>
</g>
</svg>
