<svg width="189" height="37" viewBox="0 0 189 37" fill="none" xmlns="http://www.w3.org/2000/svg">
<rect x="11" y="7.27319" width="10.2859" height="10.2859" transform="rotate(-45 11 7.27319)" fill="#6C3DD0"/>
<rect x="11" y="29.2732" width="10.2859" height="10.2859" transform="rotate(-45 11 29.2732)" fill="#6C3DD0"/>
<rect x="22" y="18.2732" width="10.2859" height="10.2859" transform="rotate(-45 22 18.2732)" fill="#6C3DD0"/>
<rect y="18.2732" width="10.2859" height="10.2859" transform="rotate(-45 0 18.2732)" fill="#6C3DD0"/>
<path d="M56.456 26.168C54.872 26.168 53.416 25.8 52.088 25.064C50.76 24.312 49.704 23.28 48.92 21.968C48.152 20.64 47.768 19.144 47.768 17.48C47.768 15.816 48.152 14.328 48.92 13.016C49.704 11.688 50.76 10.656 52.088 9.92C53.416 9.184 54.872 8.816 56.456 8.816C58.056 8.816 59.512 9.184 60.824 9.92C62.152 10.656 63.2 11.688 63.968 13.016C64.736 14.328 65.12 15.816 65.12 17.48C65.12 19.144 64.736 20.64 63.968 21.968C63.2 23.28 62.152 24.312 60.824 25.064C59.496 25.8 58.04 26.168 56.456 26.168ZM56.456 21.8C57.656 21.8 58.6 21.408 59.288 20.624C59.992 19.84 60.344 18.792 60.344 17.48C60.344 16.136 59.992 15.08 59.288 14.312C58.6 13.528 57.656 13.136 56.456 13.136C55.24 13.136 54.288 13.528 53.6 14.312C52.912 15.08 52.568 16.136 52.568 17.48C52.568 18.808 52.912 19.864 53.6 20.648C54.288 21.416 55.24 21.8 56.456 21.8ZM76.0906 12.416C77.6266 12.416 78.8426 12.936 79.7386 13.976C80.6506 15 81.1066 16.392 81.1066 18.152V26H76.4026V18.776C76.4026 18.008 76.2026 17.408 75.8026 16.976C75.4026 16.528 74.8666 16.304 74.1946 16.304C73.4906 16.304 72.9386 16.528 72.5386 16.976C72.1386 17.408 71.9386 18.008 71.9386 18.776V26H67.2346V8.24H71.9386V14.456C72.3546 13.848 72.9146 13.36 73.6186 12.992C74.3386 12.608 75.1626 12.416 76.0906 12.416ZM82.9198 19.256C82.9198 17.864 83.1678 16.648 83.6638 15.608C84.1758 14.568 84.8638 13.768 85.7278 13.208C86.6078 12.648 87.5838 12.368 88.6558 12.368C89.5838 12.368 90.3838 12.552 91.0558 12.92C91.7278 13.288 92.2478 13.784 92.6158 14.408V12.536H97.3198V26H92.6158V24.128C92.2478 24.752 91.7198 25.248 91.0318 25.616C90.3598 25.984 89.5678 26.168 88.6558 26.168C87.5838 26.168 86.6078 25.888 85.7278 25.328C84.8638 24.768 84.1758 23.968 83.6638 22.928C83.1678 21.872 82.9198 20.648 82.9198 19.256ZM92.6158 19.256C92.6158 18.392 92.3758 17.712 91.8958 17.216C91.4318 16.72 90.8558 16.472 90.1678 16.472C89.4638 16.472 88.8798 16.72 88.4158 17.216C87.9518 17.696 87.7198 18.376 87.7198 19.256C87.7198 20.12 87.9518 20.808 88.4158 21.32C88.8798 21.816 89.4638 22.064 90.1678 22.064C90.8558 22.064 91.4318 21.816 91.8958 21.32C92.3758 20.824 92.6158 20.136 92.6158 19.256ZM104.704 14.912C105.232 14.144 105.872 13.536 106.624 13.088C107.376 12.64 108.184 12.416 109.048 12.416V17.432H107.728C106.704 17.432 105.944 17.632 105.448 18.032C104.952 18.432 104.704 19.128 104.704 20.12V26H100V12.536H104.704V14.912ZM109.967 19.256C109.967 17.864 110.215 16.648 110.711 15.608C111.223 14.568 111.911 13.768 112.775 13.208C113.655 12.648 114.631 12.368 115.703 12.368C116.631 12.368 117.431 12.552 118.103 12.92C118.775 13.288 119.295 13.784 119.663 14.408V12.536H124.367V26H119.663V24.128C119.295 24.752 118.767 25.248 118.079 25.616C117.407 25.984 116.615 26.168 115.703 26.168C114.631 26.168 113.655 25.888 112.775 25.328C111.911 24.768 111.223 23.968 110.711 22.928C110.215 21.872 109.967 20.648 109.967 19.256ZM119.663 19.256C119.663 18.392 119.423 17.712 118.943 17.216C118.479 16.72 117.903 16.472 117.215 16.472C116.511 16.472 115.927 16.72 115.463 17.216C114.999 17.696 114.767 18.376 114.767 19.256C114.767 20.12 114.999 20.808 115.463 21.32C115.927 21.816 116.511 22.064 117.215 22.064C117.903 22.064 118.479 21.816 118.943 21.32C119.423 20.824 119.663 20.136 119.663 19.256Z" fill="#6C3DD0"/>
<path d="M143.35 22.808H136.678L135.574 26H132.046L138.07 9.224H141.982L148.006 26H144.454L143.35 22.808ZM142.438 20.12L140.014 13.112L137.59 20.12H142.438ZM153.618 14.768C154.05 14.064 154.61 13.512 155.298 13.112C156.002 12.712 156.802 12.512 157.698 12.512V16.04H156.81C155.754 16.04 154.954 16.288 154.41 16.784C153.882 17.28 153.618 18.144 153.618 19.376V26H150.258V12.704H153.618V14.768ZM159.097 19.352C159.097 17.976 159.377 16.776 159.937 15.752C160.497 14.712 161.273 13.912 162.265 13.352C163.257 12.776 164.393 12.488 165.673 12.488C167.321 12.488 168.681 12.904 169.753 13.736C170.841 14.552 171.569 15.704 171.937 17.192H168.313C168.121 16.616 167.793 16.168 167.329 15.848C166.881 15.512 166.321 15.344 165.649 15.344C164.689 15.344 163.929 15.696 163.369 16.4C162.809 17.088 162.529 18.072 162.529 19.352C162.529 20.616 162.809 21.6 163.369 22.304C163.929 22.992 164.689 23.336 165.649 23.336C167.009 23.336 167.897 22.728 168.313 21.512H171.937C171.569 22.952 170.841 24.096 169.753 24.944C168.665 25.792 167.305 26.216 165.673 26.216C164.393 26.216 163.257 25.936 162.265 25.376C161.273 24.8 160.497 24 159.937 22.976C159.377 21.936 159.097 20.728 159.097 19.352ZM181.886 12.512C182.894 12.512 183.79 12.736 184.574 13.184C185.358 13.616 185.966 14.264 186.398 15.128C186.846 15.976 187.07 17 187.07 18.2V26H183.71V18.656C183.71 17.6 183.446 16.792 182.918 16.232C182.39 15.656 181.67 15.368 180.758 15.368C179.83 15.368 179.094 15.656 178.55 16.232C178.022 16.792 177.758 17.6 177.758 18.656V26H174.398V8.24H177.758V14.36C178.19 13.784 178.766 13.336 179.486 13.016C180.206 12.68 181.006 12.512 181.886 12.512Z" fill="black"/>
</svg>
